<svg width="3" height="6" viewBox="0 0 3 6" fill="none" xmlns="http://www.w3.org/2000/svg">
<path d="M1.50154 0C1.10331 0 0.721385 0.218554 0.439792 0.60758C0.158198 0.996606 0 1.52424 0 2.0744V4.01996C0.0175776 4.55324 0.183291 5.05663 0.462668 5.42542C0.742045 5.7942 1.11358 6 1.49999 6C1.88639 6 2.25793 5.7942 2.5373 5.42542C2.81668 5.05663 2.98239 4.55324 2.99997 4.01996V2.08729C3.0012 1.81415 2.96337 1.54337 2.88866 1.29048C2.81394 1.0376 2.70381 0.807584 2.56459 0.613648C2.42536 0.419712 2.25979 0.265669 2.07736 0.160363C1.89493 0.0550569 1.69925 0.000560237 1.50154 0ZM2.07045 4.01996C2.05984 4.21782 1.99546 4.40281 1.89023 4.53782C1.785 4.67282 1.6467 4.74786 1.5031 4.74786C1.35949 4.74786 1.22119 4.67282 1.11596 4.53782C1.01073 4.40281 0.946351 4.21782 0.935743 4.01996V2.08729C0.929962 1.97948 0.940342 1.87118 0.966235 1.76917C0.992127 1.66715 1.03297 1.57361 1.08622 1.4944C1.13947 1.41518 1.20398 1.35199 1.27571 1.30878C1.34743 1.26558 1.42484 1.24328 1.5031 1.24328C1.58135 1.24328 1.65876 1.26558 1.73048 1.30878C1.80221 1.35199 1.86672 1.41518 1.91997 1.4944C1.97321 1.57361 2.01406 1.66715 2.03995 1.76917C2.06585 1.87118 2.07623 1.97948 2.07045 2.08729V4.01996Z" fill="white"/>
<path d="M1.50154 0C1.10331 0 0.721385 0.218554 0.439792 0.60758C0.158198 0.996606 0 1.52424 0 2.0744V4.01996C0.0175776 4.55324 0.183291 5.05663 0.462668 5.42542C0.742045 5.7942 1.11358 6 1.49999 6C1.88639 6 2.25793 5.7942 2.5373 5.42542C2.81668 5.05663 2.98239 4.55324 2.99997 4.01996V2.08729C3.0012 1.81415 2.96337 1.54337 2.88866 1.29048C2.81394 1.0376 2.70381 0.807584 2.56459 0.613648C2.42536 0.419712 2.25979 0.265669 2.07736 0.160363C1.89493 0.0550569 1.69925 0.000560237 1.50154 0ZM2.07045 4.01996C2.05984 4.21782 1.99546 4.40281 1.89023 4.53782C1.785 4.67282 1.6467 4.74786 1.5031 4.74786C1.35949 4.74786 1.22119 4.67282 1.11596 4.53782C1.01073 4.40281 0.946351 4.21782 0.935743 4.01996V2.08729C0.929962 1.97948 0.940342 1.87118 0.966235 1.76917C0.992127 1.66715 1.03297 1.57361 1.08622 1.4944C1.13947 1.41518 1.20398 1.35199 1.27571 1.30878C1.34743 1.26558 1.42484 1.24328 1.5031 1.24328C1.58135 1.24328 1.65876 1.26558 1.73048 1.30878C1.80221 1.35199 1.86672 1.41518 1.91997 1.4944C1.97321 1.57361 2.01406 1.66715 2.03995 1.76917C2.06585 1.87118 2.07623 1.97948 2.07045 2.08729V4.01996Z" stroke="white"/>
</svg>
